<?xml version="1.0" encoding="UTF-8" ?>
<svg version="1.1" width="32" height="32" xmlns="http://www.w3.org/2000/svg" shape-rendering="crispEdges">
<rect x="8" y="3" width="15" height="1" fill="#000000" />
<rect x="6" y="4" width="2" height="1" fill="#000000" />
<rect x="8" y="4" width="14" height="1" fill="#607D8B" />
<rect x="22" y="4" width="1" height="4" fill="#B0BEC5" />
<rect x="23" y="4" width="2" height="1" fill="#000000" />
<rect x="5" y="5" width="1" height="1" fill="#000000" />
<rect x="6" y="5" width="1" height="1" fill="#607D8B" />
<rect x="7" y="5" width="15" height="3" fill="#B0BEC5" />
<rect x="23" y="5" width="1" height="20" fill="#B0BEC5" />
<rect x="24" y="5" width="1" height="1" fill="#607D8B" />
<rect x="25" y="5" width="1" height="1" fill="#000000" />
<rect x="4" y="6" width="1" height="2" fill="#000000" />
<rect x="5" y="6" width="1" height="1" fill="#607D8B" />
<rect x="6" y="6" width="1" height="17" fill="#B0BEC5" />
<rect x="24" y="6" width="1" height="16" fill="#B0BEC5" />
<rect x="25" y="6" width="1" height="1" fill="#607D8B" />
<rect x="26" y="6" width="1" height="2" fill="#000000" />
<rect x="5" y="7" width="1" height="15" fill="#B0BEC5" />
<rect x="25" y="7" width="1" height="15" fill="#B0BEC5" />
<rect x="3" y="8" width="1" height="13" fill="#000000" />
<rect x="4" y="8" width="1" height="13" fill="#607D8B" />
<rect x="7" y="8" width="1" height="1" fill="#B0BEC5" />
<rect x="8" y="8" width="15" height="1" fill="#000000" />
<rect x="26" y="8" width="1" height="10" fill="#B0BEC5" />
<rect x="27" y="8" width="1" height="13" fill="#000000" />
<rect x="7" y="9" width="15" height="1" fill="#607D8B" />
<rect x="22" y="9" width="1" height="3" fill="#B0BEC5" />
<rect x="7" y="10" width="15" height="2" fill="#B0BEC5" />
<rect x="7" y="12" width="1" height="1" fill="#B0BEC5" />
<rect x="8" y="12" width="15" height="1" fill="#000000" />
<rect x="7" y="13" width="15" height="1" fill="#607D8B" />
<rect x="22" y="13" width="1" height="3" fill="#B0BEC5" />
<rect x="7" y="14" width="15" height="2" fill="#B0BEC5" />
<rect x="7" y="16" width="1" height="1" fill="#B0BEC5" />
<rect x="8" y="16" width="15" height="1" fill="#000000" />
<rect x="7" y="17" width="15" height="1" fill="#607D8B" />
<rect x="22" y="17" width="1" height="3" fill="#B0BEC5" />
<rect x="7" y="18" width="15" height="2" fill="#B0BEC5" />
<rect x="26" y="18" width="1" height="3" fill="#607D8B" />
<rect x="7" y="20" width="1" height="1" fill="#B0BEC5" />
<rect x="8" y="20" width="15" height="1" fill="#000000" />
<rect x="4" y="21" width="1" height="2" fill="#000000" />
<rect x="7" y="21" width="15" height="1" fill="#607D8B" />
<rect x="22" y="21" width="1" height="4" fill="#B0BEC5" />
<rect x="26" y="21" width="1" height="2" fill="#000000" />
<rect x="5" y="22" width="1" height="1" fill="#607D8B" />
<rect x="7" y="22" width="15" height="2" fill="#B0BEC5" />
<rect x="24" y="22" width="2" height="1" fill="#607D8B" />
<rect x="5" y="23" width="1" height="1" fill="#000000" />
<rect x="6" y="23" width="1" height="1" fill="#607D8B" />
<rect x="24" y="23" width="1" height="3" fill="#B0BEC5" />
<rect x="25" y="23" width="1" height="1" fill="#000000" />
<rect x="6" y="24" width="2" height="1" fill="#000000" />
<rect x="8" y="24" width="14" height="1" fill="#607D8B" />
<rect x="25" y="24" width="1" height="2" fill="#B0BEC5" />
<rect x="26" y="24" width="1" height="2" fill="#000000" />
<rect x="8" y="25" width="15" height="1" fill="#000000" />
<rect x="23" y="25" width="1" height="1" fill="#607D8B" />
<rect x="23" y="26" width="2" height="1" fill="#000000" />
<rect x="25" y="26" width="1" height="1" fill="#607D8B" />
<rect x="26" y="26" width="1" height="1" fill="#B0BEC5" />
<rect x="27" y="26" width="1" height="1" fill="#000000" />
<rect x="25" y="27" width="1" height="1" fill="#000000" />
<rect x="26" y="27" width="1" height="1" fill="#607D8B" />
<rect x="27" y="27" width="1" height="1" fill="#B0BEC5" />
<rect x="28" y="27" width="1" height="2" fill="#000000" />
<rect x="26" y="28" width="2" height="1" fill="#000000" />
<rect x="29" y="28" width="1" height="1" fill="#000000" />
</svg>